# xmcd
#
# Track frame offsets: 
#        225
#        22715
#        27740
#        53938
#        75979
#        94880
#        102700
#        119756
#        141716
#        162372
#        184438
#        200042
#        229250
#        254592
#        273695
#
# Disc length: 3751 seconds
#
# Revision: 1
# Processed by: cddbd v1.5.2PL0 Copyright (c) Steve Scherf et al.
# Submitted via: ExactAudioCopy v0.95a4
#
DISCID=ed0ea40f
DTITLE=Niacin - Niacin
DYEAR=1997
DGENRE=Jazz
TTITLE0=No Man`s Land
TTITLE1=Clean-Up Crew
TTITLE2=Do A Little Dirty Work
TTITLE3=I Miss You (Like I Miss The Sun)
TTITLE4=One Less Worry
TTITLE5=Three Feet Back
TTITLE6=Bullet Train Blues
TTITLE7=Hell To Pay
TTITLE8=Alone On My Own Little Island
TTITLE9=For Crying Out Loud
TTITLE10=Klaghorn
TTITLE11=Spring Rounds
TTITLE12=Spring Rounds Squared
TTITLE13=Ray Dirt
TTITLE14=Fudgesicle
EXTD=YEAR: 1997
EXTT0=
EXTT1=
EXTT2=
EXTT3=
EXTT4=
EXTT5=
EXTT6=
EXTT7=
EXTT8=
EXTT9=
EXTT10=
EXTT11=
EXTT12=
EXTT13=
EXTT14=
PLAYORDER=
